<svg width="32" height="33" viewBox="0 0 32 33" fill="none" xmlns="http://www.w3.org/2000/svg">
<path d="M18.3067 28.875C18.0723 29.2917 17.7358 29.6376 17.331 29.8781C16.9261 30.1186 16.4672 30.2451 16 30.2451C15.5328 30.2451 15.0739 30.1186 14.669 29.8781C14.2642 29.6376 13.9277 29.2917 13.6933 28.875M24 11C24 8.81196 23.1571 6.71354 21.6569 5.16637C20.1566 3.61919 18.1217 2.75 16 2.75C13.8783 2.75 11.8434 3.61919 10.3431 5.16637C8.84286 6.71354 8 8.81196 8 11C8 20.625 4 23.375 4 23.375H28C28 23.375 24 20.625 24 11Z" stroke="#FF0000" stroke-width="3" stroke-linecap="round" stroke-linejoin="round"/>
</svg>
